<svg width="1200" height="630" viewBox="0 0 1200 630" fill="none" xmlns="http://www.w3.org/2000/svg">
  <defs>
    <linearGradient id="bg" x1="0" y1="0" x2="1200" y2="630" gradientUnits="userSpaceOnUse">
      <stop stop-color="#0F172A"/>
      <stop offset="0.52" stop-color="#102A43"/>
      <stop offset="1" stop-color="#0E7490"/>
    </linearGradient>
    <linearGradient id="chip" x1="0" y1="0" x2="1" y2="1">
      <stop stop-color="#67E8F9"/>
      <stop offset="1" stop-color="#22D3EE"/>
    </linearGradient>
    <filter id="blur" x="-25%" y="-25%" width="150%" height="150%">
      <feGaussianBlur stdDeviation="36" />
    </filter>
  </defs>

  <rect width="1200" height="630" rx="28" fill="url(#bg)"/>

  <g opacity="0.32" filter="url(#blur)">
    <circle cx="200" cy="100" r="140" fill="#34D399"/>
    <circle cx="960" cy="180" r="170" fill="#22D3EE"/>
    <circle cx="900" cy="520" r="190" fill="#14B8A6"/>
  </g>

  <rect x="54" y="54" width="1092" height="522" rx="24" stroke="rgba(255,255,255,0.2)" stroke-width="2"/>

  <rect x="92" y="102" width="246" height="42" rx="21" fill="url(#chip)"/>
  <text x="215" y="130" font-family="Arial, Helvetica, sans-serif" font-size="24" font-weight="700" fill="#042F2E" text-anchor="middle">LASTCOOLNAMELEFT</text>

  <text x="92" y="246" font-family="Arial, Helvetica, sans-serif" font-size="84" font-weight="900" fill="#F8FAFC" letter-spacing="2">Builder Notes</text>
  <text x="92" y="330" font-family="Arial, Helvetica, sans-serif" font-size="84" font-weight="900" fill="#F8FAFC" letter-spacing="2">&amp; Project Logs</text>

  <text x="92" y="400" font-family="Arial, Helvetica, sans-serif" font-size="34" font-weight="500" fill="#CCFBF1">
    Journaling of an overly curious maker
  </text>

  <g transform="translate(90 462)">
    <rect width="302" height="78" rx="15" fill="rgba(255,255,255,0.09)" stroke="rgba(255,255,255,0.28)" stroke-width="2"/>
    <text x="24" y="49" font-family="Arial, Helvetica, sans-serif" font-size="33" font-weight="700" fill="#F0FDFA">Projects • Blog • Builds</text>
  </g>

  <g opacity="0.86" transform="translate(860 428)">
    <path d="M0 100L64 0L128 100H0Z" fill="#99F6E4"/>
    <rect x="46" y="102" width="36" height="72" rx="7" fill="#A7F3D0"/>
    <circle cx="64" cy="58" r="16" fill="#134E4A"/>
  </g>
</svg>
